<?xml version="1.0" encoding="UTF-8" standalone="no"?>
<!-- Created with Inkscape (http://www.inkscape.org/) -->

<svg
   xmlns:dc="http://purl.org/dc/elements/1.1/"
   xmlns:cc="http://creativecommons.org/ns#"
   xmlns:rdf="http://www.w3.org/1999/02/22-rdf-syntax-ns#"
   xmlns:svg="http://www.w3.org/2000/svg"
   xmlns="http://www.w3.org/2000/svg"
   xmlns:sodipodi="http://sodipodi.sourceforge.net/DTD/sodipodi-0.dtd"
   xmlns:inkscape="http://www.inkscape.org/namespaces/inkscape"
   version="1.1"
   id="svg3699"
   xml:space="preserve"
   width="1037.9252"
   height="460.03323"
   viewBox="0 0 1037.9252 460.03323"
   sodipodi:docname="logo-cropped.svg"
   inkscape:export-filename="C:\Users\eunic\Desktop\test.png"
   inkscape:export-xdpi="96"
   inkscape:export-ydpi="96"
   inkscape:version="0.92.3 (2405546, 2018-03-11)"><metadata
     id="metadata3705"><rdf:RDF><cc:Work
         rdf:about=""><dc:format>image/svg+xml</dc:format><dc:type
           rdf:resource="http://purl.org/dc/dcmitype/StillImage" /><dc:title></dc:title></cc:Work></rdf:RDF></metadata><defs
     id="defs3703"><clipPath
       clipPathUnits="userSpaceOnUse"
       id="clipPath3715"><path
         d="M 0,792 H 612 V 0 H 0 Z"
         id="path3713"
         inkscape:connector-curvature="0" /></clipPath><clipPath
       clipPathUnits="userSpaceOnUse"
       id="clipPath3723"><path
         d="M 0,792 H 612 V 0 H 0 Z"
         id="path3721"
         inkscape:connector-curvature="0" /></clipPath><clipPath
       clipPathUnits="userSpaceOnUse"
       id="clipPath3775"><path
         d="M 146.219,377.054 H 447.688 V 496.565 H 146.219 Z"
         id="path3773"
         inkscape:connector-curvature="0" /></clipPath></defs><sodipodi:namedview
     pagecolor="#ffffff"
     bordercolor="#666666"
     borderopacity="1"
     objecttolerance="10"
     gridtolerance="10"
     guidetolerance="10"
     inkscape:pageopacity="0"
     inkscape:pageshadow="2"
     inkscape:window-width="2560"
     inkscape:window-height="1392"
     id="namedview3701"
     showgrid="false"
     inkscape:zoom="0.75568182"
     inkscape:cx="191.7121"
     inkscape:cy="342.16141"
     inkscape:window-x="0"
     inkscape:window-y="24"
     inkscape:window-maximized="1"
     inkscape:current-layer="g3707"
     fit-margin-top="0"
     fit-margin-left="0"
     fit-margin-right="0"
     fit-margin-bottom="0" /><g
     id="g3707"
     inkscape:groupmode="layer"
     inkscape:label="logo6"
     transform="matrix(1.3333333,0,0,-1.3333333,-10.513464,640.5786)"><g
       id="g3709"
       transform="matrix(1.5,0,0,1.5,-42.271573,-291.81554)"><g
         id="g3711"
         clip-path="url(#clipPath3715)"><g
           id="g3717"><g
             id="g3719"
             clip-path="url(#clipPath3723)"><text
   transform="matrix(1,0,0,-0.86956522,23.2495,287.833)"
   style="font-variant:normal;font-weight:normal;font-stretch:normal;font-size:124.19999695px;font-family:Arial;-inkscape-font-specification:ArialMT;writing-mode:lr-tb;fill:#231f20;fill-opacity:1;fill-rule:nonzero;stroke:none"
   id="text3727"><tspan
     x="0"
     y="0"
     id="tspan3725">F</tspan></text>

<text
   transform="matrix(1,0,0,-0.74777537,93.752,288.082)"
   style="font-variant:normal;font-weight:normal;font-stretch:normal;font-size:144.42840576px;font-family:Arial;-inkscape-font-specification:ArialMT;writing-mode:lr-tb;fill:#231f20;fill-opacity:1;fill-rule:nonzero;stroke:none"
   id="text3731"><tspan
     x="0"
     y="0"
     id="tspan3729">u</tspan></text>

<text
   transform="matrix(1,0,0,-0.72729917,177.9604,288.709)"
   style="font-variant:normal;font-weight:normal;font-stretch:normal;font-size:148.49459839px;font-family:Arial;-inkscape-font-specification:ArialMT;writing-mode:lr-tb;fill:#231f20;fill-opacity:1;fill-rule:nonzero;stroke:none"
   id="text3735"><tspan
     x="0"
     y="0"
     id="tspan3733">t</tspan></text>

<text
   transform="matrix(1,0,0,-0.74086168,224.498,288.082)"
   style="font-variant:normal;font-weight:normal;font-stretch:normal;font-size:145.77619934px;font-family:Arial;-inkscape-font-specification:ArialMT;writing-mode:lr-tb;fill:#231f20;fill-opacity:1;fill-rule:nonzero;stroke:none"
   id="text3739"><tspan
     x="0"
     y="0"
     id="tspan3737">u</tspan></text>

<text
   transform="matrix(1,0,0,-0.84746501,303.748,288.0449)"
   style="font-variant:normal;font-weight:normal;font-stretch:normal;font-size:128.52330017px;font-family:Arial;-inkscape-font-specification:ArialMT;writing-mode:lr-tb;fill:#231f20;fill-opacity:1;fill-rule:nonzero;stroke:none"
   id="text3743"><tspan
     x="0"
     y="0"
     id="tspan3741">r</tspan></text>

<text
   transform="matrix(1,0,0,-0.86956522,351.5,289.082)"
   style="font-variant:normal;font-weight:normal;font-stretch:normal;font-size:124.19999695px;font-family:Arial;-inkscape-font-specification:ArialMT;writing-mode:lr-tb;fill:#231f20;fill-opacity:1;fill-rule:nonzero;stroke:none"
   id="text3747"><tspan
     x="0"
     y="0"
     id="tspan3745">e</tspan></text>

<text
   transform="matrix(1,0,0,-0.86956522,402.5557,287.7861)"
   style="font-variant:normal;font-weight:normal;font-stretch:normal;font-size:124.19999695px;font-family:Arial;-inkscape-font-specification:ArialMT;writing-mode:lr-tb;fill:#231f20;fill-opacity:1;fill-rule:nonzero;stroke:none"
   id="text3751"><tspan
     x="0"
     y="0"
     id="tspan3749">T</tspan></text>

<text
   transform="matrix(1,0,0,-0.86956522,461.5723,289.082)"
   style="font-variant:normal;font-weight:normal;font-stretch:normal;font-size:124.19999695px;font-family:Arial;-inkscape-font-specification:ArialMT;writing-mode:lr-tb;fill:#231f20;fill-opacity:1;fill-rule:nonzero;stroke:none"
   id="text3755"><tspan
     x="0"
     y="0"
     id="tspan3753">e</tspan></text>

<text
   transform="matrix(1,0,0,-1,536,287.833)"
   style="font-variant:normal;font-weight:normal;font-stretch:normal;font-size:108px;font-family:Arial;-inkscape-font-specification:ArialMT;writing-mode:lr-tb;fill:#231f20;fill-opacity:1;fill-rule:nonzero;stroke:none"
   id="text3759"><tspan
     x="0"
     y="0"
     id="tspan3757">l</tspan></text>

<path
   d="m 147,364.333 c 0,-7.456 -6.044,-13.5 -13.5,-13.5 -7.456,0 -13.5,6.044 -13.5,13.5 0,7.456 6.044,13.5 13.5,13.5 7.456,0 13.5,-6.044 13.5,-13.5"
   style="fill:#134a8d;fill-opacity:1;fill-rule:nonzero;stroke:none"
   id="path3761"
   inkscape:connector-curvature="0" /><path
   d="m 480.75,497.833 c 0,-7.456 -6.044,-13.5 -13.5,-13.5 -7.456,0 -13.5,6.044 -13.5,13.5 0,7.456 6.044,13.5 13.5,13.5 7.456,0 13.5,-6.044 13.5,-13.5"
   style="fill:#134a8d;fill-opacity:1;fill-rule:nonzero;stroke:none"
   id="path3763"
   inkscape:connector-curvature="0" /><path
   d="m 141.75,370.583 c 0,-2.484 -2.014,-4.5 -4.5,-4.5 -2.486,0 -4.5,2.016 -4.5,4.5 0,2.484 2.014,4.5 4.5,4.5 2.486,0 4.5,-2.016 4.5,-4.5"
   style="fill:#ffffff;fill-opacity:1;fill-rule:nonzero;stroke:none"
   id="path3765"
   inkscape:connector-curvature="0" /><path
   d="m 478.5,499.583 c 0,-2.484 -2.016,-4.5 -4.5,-4.5 -2.484,0 -4.5,2.016 -4.5,4.5 0,2.484 2.016,4.5 4.5,4.5 2.484,0 4.5,-2.016 4.5,-4.5"
   style="fill:#ffffff;fill-opacity:1;fill-rule:nonzero;stroke:none"
   id="path3767"
   inkscape:connector-curvature="0" /><g
   id="g3769"><g
     id="g3771"
     clip-path="url(#clipPath3775)"><path
       d="m 298.178,467.228 c 11.047,10.296 108.312,29.826 149.509,29.329 v -0.026 c -33.749,0.568 -189.928,-65.048 -192.986,-80.866 l -0.09,0.025 c 0.109,6.501 4.431,26.012 6.577,30.755 -16.325,-4.191 -114.594,-63.279 -114.697,-69.391 l -0.272,0.028 c 1.242,22.62 138.023,116.053 169.78,115.835 l -0.002,-0.072 c -2.314,0.038 -15.348,-19.058 -17.819,-25.617"
       style="fill:#114a85;fill-opacity:1;fill-rule:nonzero;stroke:none"
       id="path3777"
       inkscape:connector-curvature="0" /></g></g><path
   d="m 146.215,376.864 c 0.001,0.074 0.002,0.147 0.003,0.219 1.243,22.618 138.023,116.051 169.781,115.834 0.067,0 0.113,-0.002 0.158,-0.003"
   style="fill:none;stroke:#114a85;stroke-width:0.25;stroke-linecap:butt;stroke-linejoin:miter;stroke-miterlimit:4;stroke-dasharray:none;stroke-opacity:1"
   id="path3779"
   inkscape:connector-curvature="0" /><path
   d="m 298.155,467.204 c -0.261,-0.65 -0.406,-1.206 -0.412,-1.57"
   style="fill:none;stroke:#114a85;stroke-width:0.25;stroke-linecap:butt;stroke-linejoin:miter;stroke-miterlimit:4;stroke-dasharray:none;stroke-opacity:1"
   id="path3781"
   inkscape:connector-curvature="0" /><path
   d="m 315.997,492.844 c -2.313,0.039 -15.348,-19.058 -17.819,-25.617"
   style="fill:none;stroke:#114a85;stroke-width:0.25;stroke-linecap:butt;stroke-linejoin:miter;stroke-miterlimit:4;stroke-dasharray:none;stroke-opacity:1"
   id="path3783"
   inkscape:connector-curvature="0" /><path
   d="m 297.15,465.522 c 0.009,0.534 0.359,1.11 1.004,1.682 0,0 0.024,0.048 0.023,0.024 11.048,10.297 108.313,29.825 149.51,29.328 0.204,-0.003 0.385,-0.006 0.589,-0.01"
   style="fill:none;stroke:#114a85;stroke-width:0.25;stroke-linecap:butt;stroke-linejoin:miter;stroke-miterlimit:4;stroke-dasharray:none;stroke-opacity:1"
   id="path3785"
   inkscape:connector-curvature="0" /><path
   d="m 146.491,377.054 c 0.103,6.113 98.372,65.201 114.697,69.392 0.616,0.159 1.139,0.248 1.503,0.242"
   style="fill:none;stroke:#114a85;stroke-width:0.25;stroke-linecap:butt;stroke-linejoin:miter;stroke-miterlimit:4;stroke-dasharray:none;stroke-opacity:1"
   id="path3787"
   inkscape:connector-curvature="0" /><path
   d="m 261.955,447.501 c -0.205,0.003 -0.46,-0.381 -0.767,-1.055 -2.146,-4.744 -6.468,-24.254 -6.577,-30.755"
   style="fill:none;stroke:#114a85;stroke-width:0.25;stroke-linecap:butt;stroke-linejoin:miter;stroke-miterlimit:4;stroke-dasharray:none;stroke-opacity:1"
   id="path3789"
   inkscape:connector-curvature="0" /><path
   d="m 254.649,415.253 c 0.002,0.122 0.027,0.267 0.052,0.413 3.058,15.817 159.237,81.433 192.986,80.865 0.044,0 0.067,-0.001 0.113,-0.001"
   style="fill:none;stroke:#114a85;stroke-width:0.25;stroke-linecap:butt;stroke-linejoin:miter;stroke-miterlimit:4;stroke-dasharray:none;stroke-opacity:1"
   id="path3791"
   inkscape:connector-curvature="0" /></g></g></g></g></g></svg>