<svg width="538" height="190" viewBox="0 0 538 190" fill="none" xmlns="http://www.w3.org/2000/svg">
<g clip-path="url(#clip0_1_52)">
<path d="M6.10001 75C9.20001 74.7 12 76.8 13.1 80.1C14.2 83.4 15.2 86.8 16.2 90.2C17.2 93.6 18.3 97 19.3 100.4C19.5 101 19.6 101.6 19 102.2C18.1 103.1 18.6 104 19.4 104.8C21.2 106.4 23.1 108 24.8 109.7C28.4 113.3 31.8 116.9 35.3 120.5C35.4 120.6 35.5 120.8 35.7 120.9C36.4 121.6 37.3 121.8 38.1 121.1C38.9 120.4 38.8 119.5 38.2 118.8C36.8 117.1 35.5 115.4 33.9 113.8C30.3 110.2 26.5 106.8 22.8 103.3C26 100.7 31.1 101.2 34.5 104.5C37.3 107.3 40.1 110 42.9 112.9C46 116.1 49.5 118.4 53.7 119.9C62.7 123.1 68.3 131.1 68.8 140.6C69 145.1 69.8 149.5 70 154C70.2 158.6 70 163.1 70 167.7C62.9 169.9 55.7 169.9 48.5 167.9C48.1 167.8 47.7 167.2 47.6 166.7C47.2 161.4 46.8 156.1 46.4 150.7C46.2 148 45 145.7 42.8 144.2C36.7 139.9 30.6 135.7 24.5 131.5C18.3 127.3 14.5 121.6 13.2 114.1C11 101.4 8.50001 88.7 6.10001 76C6.20001 75.7 6.20001 75.4 6.10001 75Z" fill="#A95D32"/>
<path d="M147.8 103.3C144.2 106.8 140.5 110.2 136.9 113.8C135.4 115.3 134.1 117 132.7 118.6C132 119.4 131.6 120.4 132.7 121.2C133.7 122 134.6 121.5 135.3 120.7C139.8 114.8 145.6 110.1 151 105.1C152.5 103.7 152.5 103.4 151.5 101.8C151.3 101.5 151.3 101.1 151.4 100.8C153.5 93.8 155.5 86.9 157.7 79.9C158.7 76.7 161.4 74.9 164.7 74.9C164.4 76.8 164.1 78.7 163.7 80.6C161.5 92.6 159.2 104.6 156.9 116.6C155.9 122.1 152.9 126.5 148.6 129.7C141.9 134.7 134.9 139.3 128 144.1C125.7 145.7 124.4 148 124.2 150.8C123.7 156 123.2 161.2 122.7 166.4C122.6 166.9 122.2 167.6 121.8 167.8C114.7 169.9 107.6 169.8 100.3 167.6C100.5 161.9 100.6 156.1 100.9 150.4C101.1 146.6 101.7 142.9 101.9 139.2C102.5 130.6 108.9 122.4 117.4 119.7C120.9 118.6 123.9 116.7 126.4 114.1C129.6 110.9 132.8 107.7 136 104.5C139.5 101.3 144.4 100.8 147.8 103.3Z" fill="#A95D32"/>
<path d="M26.4 98.4C25 98.8 23.8 99.2 22.5 99.6C20.9 94.2 19.2 88.8 17.6 83.4C19.6 83.1 21.9 84.1 22.6 86.2C23.9 90.1 25.1 94.2 26.4 98.4Z" fill="#A95D32"/>
<path d="M148.2 99.5C146.8 99.1 145.7 98.8 144.4 98.4C144.4 98.1 144.4 97.8 144.5 97.6C145.6 94 146.6 90.4 147.8 86.8C148.6 84.4 150.4 83.1 153.1 83.2C151.5 88.6 149.9 94 148.2 99.5Z" fill="#A95D32"/>
<path d="M136.3 100C136.9 95 139.4 91.5 143.1 90.9C142.4 93.4 141.7 95.7 140.9 98.1C140.8 98.3 140.6 98.6 140.4 98.7C139.1 99.1 137.7 99.5 136.3 100Z" fill="#A95D32"/>
<path d="M34.4 100C33 99.5 31.7 99.1 30.5 98.7C30.2 98.6 29.8 98.3 29.7 98C29 95.7 28.3 93.3 27.6 90.9C31.4 91.4 33.4 94.7 34.4 100Z" fill="#A95D32"/>
<path d="M85.2 117.1C58.5 117.1 36.9 95.5 36.8 68.8C36.8 42.1 58.5 20.4 85.2 20.4C111.9 20.4 133.5 42.1 133.5 68.8C133.5 95.5 111.9 117.1 85.2 117.1ZM61.7 32.9C55.2 37.3 50.1 42.9 46.6 50C42.4 58.7 41.3 67.8 43.1 77.3C44.5 84.6 47.8 91.2 52.7 96.8C60.1 105.3 69.4 110.2 80.6 111.5C89.6 112.5 98.2 110.8 106.1 106.3C115.6 100.9 122.1 93.1 125.7 82.8C127 79 127.8 75.1 128 71C128 70.5 127.9 70.2 127.4 70C126.1 69.5 125.7 69.6 124.6 71.1C123.5 72.5 122.3 72.5 121.5 70.9C120.2 68.2 118.9 65.5 118 62.6C117.3 60.3 117.7 57.8 117.1 55.5C116.5 52.7 117 50.2 118.3 47.7C119.2 46.1 119.4 46 120.8 47C121.2 47.3 121.6 47.7 122.2 47.2C121.7 46.3 121.1 45.5 120.6 44.6C119.8 43 118.3 42.5 116.8 42C116 41.7 115.7 42 115.7 42.8C115.7 43.2 115.8 43.6 115.9 44.1C116 45.2 115.4 45.8 114.2 45.9C113.4 45.9 113.1 45.5 113.2 44.3C113.3 43.3 113.1 42.6 112.3 42C111.4 41.4 111 40.5 110.9 39.4C110.8 37 109.4 35.7 107.3 34.9C105.9 34.3 104.6 33.4 103.5 32.3C102.9 31.7 102.2 31.2 101.6 30.6C101.1 30.1 100.7 29.4 100.3 28.9C100.2 28.7 100 28.5 99.7 28.4C98.1 27.9 96.5 27.3 94.9 26.9C93.3 26.5 91.6 26.3 89.8 25.9C90.9 28 92 29.7 94 30.7C95.4 31.5 95.8 32.2 95.3 33.5C94.8 34.6 94.8 35.7 95.1 36.9C95.2 37.2 95.2 37.5 95.2 37.8C95.2 38.9 94.5 39.6 93.5 39.2C92.8 39 92.1 38.6 91.5 38.1C90.7 37.5 90.1 36.7 89.4 36C88.9 35.6 88.4 35.5 87.8 35.8C85.8 37 85.6 39.2 87.5 40.6C87.8 40.8 88.1 40.9 88.3 41.1C89.2 41.9 90.3 42.6 91.1 43.5C92.7 45.3 92.6 46.7 90.6 48.1C89.2 49.1 87.5 49.9 85.9 50.6C84.6 51.2 83.6 51.9 82.6 53C81.5 54.3 80.3 55.5 79.1 56.6C78.3 57.3 77.7 57.9 77.4 58.9C76.7 61 76.4 61.1 74.4 60.1C74.1 59.9 73.8 59.7 73.5 59.6C72.4 59.3 71.2 58.9 70.1 58.9C66.7 58.9 64.2 62.3 65.2 65.3C65.6 66.4 66.4 66.9 67.6 66.7C68.1 66.6 68.5 66.5 69 66.4C70.4 66.2 70.9 66.6 71 68.1C71.1 69.5 71.3 69.6 72.6 70.1C73.2 70.3 73.8 70.7 74.2 71.2C74.8 72.1 75.3 73.1 75.8 74C76.2 74.7 76.6 75.5 75.9 76.3C75.5 76.8 74.3 76.5 73.5 75.7C72.8 75 72.2 74.3 71.7 73.5C70.7 72.2 69.6 71.2 68 70.5C66.3 69.8 64.6 69 63 68.2C61.2 67.2 60 65.8 59.8 63.6C59.4 60.5 58.6 57.5 57.1 54.6C56.6 53.7 56.4 52.7 56.3 51.7C56.1 49.1 57 46.9 59 45.2C60 44.4 60.9 43.4 61.1 42.1C61.3 40.5 61.8 39 62.8 37.7C63.6 36.7 63.5 35.6 62.7 34.6C62.5 34.3 62.2 33.6 61.7 32.9Z" fill="#006227"/>
<path d="M109.5 85.9C109.4 87.1 108.9 88.1 108.1 89C107 90.1 106.3 91.4 105.9 92.9C105.6 94.1 104.9 95 103.8 95.6C101.6 96.8 99.9 98.5 98 100.1C96 101.8 93.5 103.1 91.2 104.3C89 105.5 87 106.7 85.2 108.4C84.8 108.7 84.4 109.1 84 109.3C83.2 109.8 82.4 109.9 81.6 109.4C80.8 108.8 80.5 108 80.7 107.1C81.1 105.9 81.6 104.8 82.1 103.6C82.7 102.2 83.3 100.8 83.8 99.4C84.4 97.3 84 95.5 82 94.2C80.9 93.4 79.9 92.4 78.9 91.4C75.8 88.3 75.2 84.6 76.8 80.6C77.4 79 78.3 77.5 79.3 76.1C80.8 74 83.1 73.8 85.4 74.2C89.8 74.9 93.5 76.9 96.7 79.8C98.5 81.5 100.6 82.6 103.1 82.8C104.2 82.9 105.4 83.1 106.5 83.3C107.1 83.4 107.6 83.6 108.1 83.9C109 84.3 109.5 84.9 109.5 85.9Z" fill="#006227"/>
<path d="M195.449 29.7608C194.838 28.936 194.105 28.3861 193.128 27.9736C192.15 27.5612 191.173 27.4237 190.318 27.4237C189.829 27.4237 189.218 27.4237 188.729 27.5612C188.241 27.6987 187.63 27.9736 187.141 28.2486C186.652 28.5235 186.286 28.936 185.919 29.3484C185.675 29.7608 185.431 30.4482 185.431 31.1356C185.431 32.2354 185.797 33.0603 186.53 33.6102C187.263 34.1601 188.119 34.71 189.218 35.1224C190.318 35.5348 191.54 35.9473 192.761 36.3597C193.983 36.7721 195.205 37.322 196.305 38.1469C197.404 38.8343 198.26 39.9341 198.993 41.1714C199.726 42.4086 200.092 44.0584 200.092 46.258C200.092 48.3201 199.726 49.9698 199.115 51.4821C198.504 52.9943 197.526 54.2316 196.427 55.1939C195.327 56.1563 193.983 56.8437 192.517 57.3936C191.051 57.806 189.462 58.081 187.752 58.081C185.675 58.081 183.72 57.6685 182.009 56.9811C180.299 56.2938 178.588 55.0565 177 53.5442L182.009 47.3578C182.743 48.4576 183.598 49.2825 184.697 49.8324C185.797 50.3823 186.897 50.6572 188.119 50.6572C188.729 50.6572 189.218 50.5197 189.829 50.3823C190.44 50.2448 190.929 49.9698 191.417 49.6949C191.906 49.4199 192.273 49.0075 192.517 48.4576C192.761 48.0452 193.006 47.3578 193.006 46.8079C193.006 45.7081 192.639 44.8832 191.906 44.1958C191.173 43.5085 190.196 43.096 189.096 42.5461C187.996 42.1337 186.775 41.7213 185.431 41.1714C184.087 40.7589 182.865 40.0715 181.765 39.3842C180.665 38.6968 179.688 37.597 178.955 36.4972C178.222 35.2599 177.855 33.6102 177.855 31.6855C177.855 29.7608 178.222 28.1111 178.833 26.5989C179.566 25.0866 180.421 23.8493 181.521 22.887C182.62 21.9247 183.964 21.0998 185.431 20.6874C186.897 20.1375 188.485 20 189.951 20C191.784 20 193.494 20.275 195.205 20.8249C196.916 21.3748 198.382 22.3371 199.726 23.7119L195.449 29.7608Z" fill="#277A09"/>
<path d="M232.593 43.2335C232.593 45.4331 232.348 47.3578 231.737 49.145C231.126 50.9322 230.271 52.4444 229.171 53.8192C228.072 55.1939 226.606 56.1563 224.895 56.9811C223.185 57.6685 221.23 58.081 219.03 58.081C216.831 58.081 214.876 57.6685 213.166 56.9811C211.455 56.2938 210.111 55.1939 208.889 53.8192C207.79 52.4444 206.934 50.9322 206.324 49.145C205.713 47.3578 205.468 45.4331 205.468 43.2335V20.9623H212.555V42.8211C212.555 43.9209 212.677 45.0207 213.044 45.983C213.41 46.9454 213.777 47.7702 214.387 48.4576C214.998 49.145 215.609 49.6949 216.465 50.1073C217.32 50.5197 218.175 50.6572 219.03 50.6572C220.008 50.6572 220.863 50.5197 221.596 50.1073C222.329 49.6949 223.062 49.145 223.673 48.4576C224.284 47.7702 224.651 46.9454 225.017 45.983C225.384 45.0207 225.506 44.0584 225.506 42.8211V20.9623H232.593V43.2335Z" fill="#277A09"/>
<path d="M254.952 29.7608C254.341 28.936 253.608 28.3861 252.63 27.9736C251.653 27.5612 250.675 27.4237 249.82 27.4237C249.331 27.4237 248.721 27.4237 248.232 27.5612C247.743 27.6987 247.132 27.9736 246.643 28.2486C246.155 28.5235 245.788 28.936 245.422 29.3484C245.177 29.7608 244.933 30.4482 244.933 31.1356C244.933 32.2354 245.299 33.0603 246.033 33.6102C246.766 34.1601 247.621 34.71 248.72 35.1224C249.82 35.5348 251.042 35.9473 252.264 36.3597C253.486 36.7721 254.707 37.322 255.807 38.1469C256.907 38.8343 257.762 39.9341 258.495 41.1714C259.228 42.4086 259.595 44.0584 259.595 46.258C259.595 48.3201 259.228 49.9698 258.617 51.4821C258.006 52.9943 257.029 54.2316 255.929 55.1939C254.83 56.1563 253.486 56.8437 252.019 57.3936C250.553 57.806 248.965 58.081 247.254 58.081C245.177 58.081 243.222 57.6685 241.512 56.9811C239.801 56.2938 238.091 55.0565 236.502 53.5442L241.512 47.3578C242.245 48.4576 243.1 49.2825 244.2 49.8324C245.299 50.3823 246.399 50.6572 247.621 50.6572C248.232 50.6572 248.72 50.5197 249.331 50.3823C249.942 50.2448 250.431 49.9698 250.92 49.6949C251.409 49.4199 251.775 49.0075 252.019 48.4576C252.264 48.0452 252.508 47.3578 252.508 46.8079C252.508 45.7081 252.142 44.8832 251.409 44.1958C250.675 43.5085 249.698 43.096 248.598 42.5461C247.499 42.1337 246.277 41.7213 244.933 41.1714C243.589 40.7589 242.367 40.0715 241.267 39.3842C240.168 38.6968 239.19 37.597 238.457 36.4972C237.724 35.2599 237.358 33.6102 237.358 31.6855C237.358 29.7608 237.724 28.1111 238.335 26.5989C239.068 25.0866 239.923 23.8493 241.023 22.887C242.123 21.9247 243.467 21.0998 244.933 20.6874C246.399 20.1375 247.987 20 249.454 20C251.286 20 252.997 20.275 254.707 20.8249C256.418 21.3748 257.884 22.3371 259.228 23.7119L254.952 29.7608Z" fill="#277A09"/>
<path d="M271.324 27.9736H262.16V20.9623H287.452V27.9736H278.288V56.9811H271.202L271.324 27.9736Z" fill="#277A09"/>
<path d="M297.471 20.9623H303.336L317.264 56.9811H309.323L306.512 49.2825H294.05L291.362 56.9811H283.542L297.471 20.9623ZM300.159 31.548L296.249 42.8211H304.069L300.159 31.548Z" fill="#277A09"/>
<path d="M320.319 20.9623H327.405V56.9811H320.319V20.9623Z" fill="#277A09"/>
<path d="M333.881 20.9623H343.533L357.218 45.983H357.34V20.9623H364.426V56.9811H355.141L341.212 31.2731H341.09V56.9811H334.003V20.9623H333.881Z" fill="#277A09"/>
<path d="M381.287 20.9623H387.152L401.081 56.9811H393.139L390.329 49.2825H377.866L375.178 56.9811H367.481L381.287 20.9623ZM383.975 31.548L380.066 42.8211H387.885L383.975 31.548Z" fill="#277A09"/>
<path d="M404.258 20.9623H416.231C417.575 20.9623 419.041 21.0998 420.385 21.2373C421.729 21.5122 423.073 21.9247 424.173 22.6121C425.273 23.2994 426.25 24.2618 426.861 25.3616C427.594 26.5989 427.961 28.1111 427.961 30.0358C427.961 32.0979 427.472 33.7476 426.495 35.1224C425.517 36.4972 424.173 37.4595 422.463 38.0094V38.1469C423.562 38.2844 424.417 38.6968 425.395 39.1092C426.25 39.6591 426.983 40.209 427.594 41.0339C428.205 41.8587 428.694 42.6836 429.06 43.6459C429.427 44.6083 429.549 45.7081 429.549 46.9454C429.549 48.87 429.183 50.3823 428.449 51.757C427.716 52.9943 426.739 54.0941 425.639 54.7815C424.54 55.6064 423.196 56.1563 421.729 56.4312C420.263 56.7062 418.919 56.9811 417.453 56.9811H404.38L404.258 20.9623ZM411.344 35.3974H416.476C416.964 35.3974 417.575 35.3974 418.064 35.2599C418.553 35.1224 419.041 34.8475 419.53 34.5725C419.897 34.2975 420.263 33.8851 420.508 33.3352C420.752 32.7853 420.874 32.2354 420.874 31.548C420.874 30.8606 420.752 30.1733 420.385 29.6233C420.019 29.0734 419.775 28.7985 419.286 28.5235C418.797 28.2486 418.308 28.1111 417.697 27.9736C417.087 27.8362 416.598 27.8362 415.987 27.8362H411.222L411.344 35.3974ZM411.344 50.3823H417.697C418.186 50.3823 418.797 50.3823 419.408 50.2448C420.019 50.1073 420.508 49.8324 420.874 49.5574C421.363 49.2825 421.729 48.7326 421.974 48.1827C422.218 47.6327 422.463 46.9454 422.463 46.258C422.463 45.4331 422.218 44.7457 421.852 44.1958C421.485 43.6459 420.996 43.2335 420.385 42.9586C419.775 42.6836 419.164 42.5461 418.553 42.4087C417.942 42.2712 417.209 42.2712 416.72 42.2712H411.344V50.3823V50.3823Z" fill="#277A09"/>
<path d="M433.581 20.9623H440.668V56.9811H433.581V20.9623Z" fill="#277A09"/>
<path d="M447.265 20.9623H454.352V49.6949H467.425V56.9811H447.265V20.9623Z" fill="#277A09"/>
<path d="M471.213 20.9623H478.299V56.9811H471.213V20.9623Z" fill="#277A09"/>
<path d="M491.006 27.9736H481.843V20.9623H507.134V27.9736H497.971V56.9811H490.884L491.006 27.9736Z" fill="#277A09"/>
<path d="M518.619 41.7213L506.523 21.0998H515.32L522.163 34.5725L529.371 21.0998H537.802L525.706 41.7213V57.1186H518.619V41.7213Z" fill="#277A09"/>
<path d="M181.887 67.0169H186.164V87.2259H208.767V67.0169H213.044V113.759H208.767V91.6252H186.164V113.759H181.887V67.0169Z" fill="black"/>
<path d="M223.551 113.759H218.664L236.747 67.0169H240.901L258.984 113.759H254.096L249.576 101.523H228.194L223.551 113.759ZM229.782 97.1242H247.743L238.824 72.516L229.782 97.1242Z" fill="black"/>
<path d="M298.693 106.473C297.96 107.71 297.104 108.81 296.127 109.772C295.149 110.872 293.928 111.697 292.584 112.522C291.24 113.346 289.773 113.896 288.307 114.309C286.719 114.721 285.131 114.996 283.42 114.996C280.366 114.996 277.433 114.446 274.867 113.209C272.302 111.972 269.98 110.322 268.025 108.122C266.07 105.923 264.604 103.311 263.504 100.424C262.405 97.3992 261.916 94.0997 261.916 90.5254C261.916 86.951 262.405 83.6515 263.504 80.6271C264.604 77.6026 266.07 74.9905 268.025 72.9284C269.98 70.7288 272.302 69.079 274.867 67.8418C277.555 66.6045 280.366 66.0546 283.42 66.0546C285.986 66.0546 288.552 66.6045 291.117 67.7043C293.683 68.8041 295.883 70.7288 297.715 73.3408L294.05 76.5028C293.561 75.8154 293.072 74.9905 292.339 74.3031C291.606 73.6158 290.751 72.9284 289.773 72.3785C288.796 71.8286 287.819 71.2787 286.719 71.0037C285.619 70.5913 284.52 70.4538 283.42 70.4538C280.732 70.4538 278.411 71.0037 276.211 72.1035C274.134 73.2033 272.302 74.7156 270.835 76.5028C269.369 78.29 268.27 80.4896 267.414 82.9642C266.681 85.4387 266.192 87.9133 266.192 90.6628C266.192 93.4124 266.559 95.8869 267.414 98.3615C268.147 100.836 269.369 102.898 270.835 104.823C272.302 106.748 274.134 108.122 276.211 109.222C278.288 110.322 280.732 110.872 283.42 110.872C284.52 110.872 285.619 110.734 286.719 110.597C287.819 110.322 288.796 110.047 289.896 109.497C290.873 108.947 291.851 108.26 292.828 107.297C293.805 106.335 294.539 105.235 295.394 103.861L298.693 106.473Z" fill="black"/>
<path d="M310.056 87.3634H310.666L330.216 67.1544H336.202L315.309 88.3257L337.424 113.896H331.193L310.789 89.838H310.056V113.896H305.779V67.1544H310.056V87.3634Z" fill="black"/>
<path d="M342.067 113.759H337.18L355.263 67.0169H359.417L377.5 113.759H372.612L368.092 101.523H346.832L342.067 113.759ZM348.176 97.1242H366.259L357.34 72.516L348.176 97.1242Z" fill="black"/>
<path d="M392.284 113.759H388.007V71.4161H374.079V67.0169H406.09V71.4161H392.162L392.284 113.759Z" fill="black"/>
<path d="M412.688 67.0169H416.964V87.2259H439.568V67.0169H443.844V113.759H439.568V91.6252H416.964V113.759H412.688V67.0169Z" fill="black"/>
<path d="M495.527 90.3878C495.527 93.9622 495.038 97.2617 493.939 100.286C492.839 103.311 491.373 105.923 489.418 107.985C487.463 110.184 485.142 111.834 482.576 113.071C480.01 114.309 477.078 114.859 474.023 114.859C470.969 114.859 468.036 114.309 465.47 113.071C462.905 111.834 460.583 110.184 458.628 107.985C456.673 105.785 455.207 103.173 454.108 100.286C453.008 97.2617 452.519 93.9622 452.519 90.3878C452.519 86.8135 453.008 83.514 454.108 80.4895C455.207 77.4651 456.673 74.853 458.628 72.7909C460.583 70.5912 462.905 68.9415 465.47 67.7042C468.158 66.467 470.969 65.9171 474.023 65.9171C477.078 65.9171 480.01 66.467 482.576 67.7042C485.264 68.9415 487.463 70.5912 489.418 72.7909C491.373 74.9905 492.839 77.6025 493.939 80.4895C494.916 83.6515 495.527 86.8135 495.527 90.3878ZM490.884 90.3878C490.884 87.6383 490.518 85.1637 489.662 82.6892C488.929 80.2146 487.707 78.1524 486.241 76.2278C484.775 74.4406 482.942 72.9284 480.865 71.8285C478.788 70.7287 476.345 70.1788 473.657 70.1788C470.969 70.1788 468.647 70.7287 466.448 71.8285C464.371 72.9284 462.538 74.4406 461.072 76.2278C459.606 78.015 458.506 80.2146 457.651 82.6892C456.918 85.1637 456.429 87.6383 456.429 90.3878C456.429 93.1374 456.796 95.6119 457.651 98.0865C458.384 100.561 459.606 102.623 461.072 104.548C462.538 106.473 464.371 107.847 466.448 108.947C468.525 110.047 470.969 110.597 473.657 110.597C476.345 110.597 478.666 110.047 480.865 108.947C482.942 107.847 484.775 106.335 486.241 104.548C487.707 102.761 488.807 100.561 489.662 98.0865C490.518 95.7494 490.884 93.1374 490.884 90.3878Z" fill="black"/>
<path d="M533.892 106.61L534.014 67.0169H538.291V113.759H533.037L508.234 73.7532H508.112V113.759H503.835V67.0169H509.089L533.892 106.61Z" fill="black"/>
<path d="M437.392 168.104H411.577L412.248 162.697L430.798 144.214C431.469 143.585 432.139 142.83 432.922 142.076C433.592 141.322 434.263 140.441 434.933 139.561C435.492 138.681 436.051 137.801 436.498 136.795C436.945 135.789 437.168 134.909 437.28 133.777C437.392 132.52 437.392 131.388 437.056 130.382C436.721 129.376 436.274 128.496 435.715 127.867C435.157 127.239 434.374 126.61 433.369 126.233C432.475 125.855 431.469 125.73 430.351 125.73C428.228 125.73 426.44 126.358 424.875 127.616C423.311 128.873 422.082 130.634 421.411 132.897L417.053 132.394C417.5 130.759 418.282 129.25 419.064 127.867C419.958 126.484 420.964 125.352 422.193 124.472C423.423 123.466 424.652 122.838 426.105 122.335C427.558 121.832 429.01 121.58 430.575 121.58C432.251 121.58 433.704 121.832 435.157 122.335C436.609 122.838 437.727 123.592 438.733 124.598C439.738 125.604 440.409 126.861 440.968 128.37C441.526 129.879 441.526 131.639 441.303 133.526C441.079 135.286 440.632 136.921 439.962 138.429C439.291 139.938 438.509 141.322 437.615 142.579C436.721 143.836 435.604 145.094 434.486 146.225C433.369 147.357 432.251 148.489 431.022 149.62L416.494 163.955H437.839L437.392 168.104Z" fill="#A95D32"/>
<path d="M461.414 121.58C464.32 121.58 466.555 122.335 468.231 123.844C469.795 125.352 471.025 127.239 471.695 129.628C472.366 131.891 472.813 134.532 472.813 137.298C472.813 140.064 472.701 142.705 472.366 145.219C472.03 147.734 471.583 150.375 470.913 153.141C470.242 155.907 469.237 158.422 467.896 160.811C466.555 163.075 464.99 165.087 462.979 166.595C460.967 168.104 458.508 168.859 455.603 168.859C452.697 168.859 450.462 168.104 448.786 166.595C447.222 165.087 445.992 163.2 445.322 160.811C444.651 158.548 444.316 155.907 444.316 153.141C444.316 150.375 444.54 147.734 444.763 145.219C445.098 142.705 445.545 140.064 446.216 137.298C446.886 134.532 447.892 132.017 449.121 129.628C450.351 127.364 452.027 125.352 454.038 123.844C456.05 122.335 458.508 121.58 461.414 121.58ZM460.967 125.855C458.732 125.855 456.944 126.484 455.491 127.867C454.038 129.25 452.809 130.885 451.915 132.897C451.021 134.909 450.351 137.046 449.904 139.184C449.457 141.447 449.121 143.459 448.898 145.219C448.674 146.98 448.451 148.992 448.451 151.255C448.339 153.518 448.563 155.656 448.898 157.542C449.345 159.554 450.015 161.189 451.133 162.572C452.25 163.955 453.927 164.584 456.162 164.584C458.397 164.584 460.185 163.955 461.638 162.572C463.09 161.189 464.208 159.554 465.102 157.542C465.996 155.53 466.666 153.393 467.113 151.255C467.56 148.992 467.896 146.98 468.119 145.219C468.343 143.459 468.566 141.447 468.566 139.184C468.678 136.921 468.454 134.783 468.119 132.897C467.672 130.885 467.002 129.25 465.884 127.867C464.878 126.484 463.202 125.855 460.967 125.855Z" fill="#A95D32"/>
<path d="M501.501 168.104H475.686L476.357 162.697L494.907 144.214C495.578 143.585 496.248 142.83 497.031 142.076C497.701 141.322 498.372 140.441 499.042 139.561C499.601 138.681 500.16 137.801 500.607 136.795C501.054 135.789 501.277 134.909 501.389 133.777C501.501 132.52 501.501 131.388 501.165 130.382C500.83 129.376 500.383 128.496 499.824 127.867C499.266 127.239 498.483 126.61 497.478 126.233C496.584 125.855 495.578 125.73 494.46 125.73C492.337 125.73 490.549 126.358 488.985 127.616C487.42 128.873 486.191 130.634 485.52 132.897L481.162 132.394C481.609 130.759 482.391 129.25 483.173 127.867C484.067 126.484 485.073 125.352 486.303 124.472C487.532 123.466 488.761 122.838 490.214 122.335C491.667 121.832 493.119 121.58 494.684 121.58C496.36 121.58 497.813 121.832 499.266 122.335C500.718 122.838 501.836 123.592 502.842 124.598C503.847 125.604 504.518 126.861 505.077 128.37C505.635 129.879 505.635 131.64 505.412 133.526C505.188 135.286 504.741 136.921 504.071 138.43C503.4 139.938 502.618 141.322 501.724 142.579C500.83 143.836 499.713 145.094 498.595 146.225C497.478 147.357 496.36 148.489 495.131 149.62L480.603 163.955H501.948L501.501 168.104Z" fill="#A95D32"/>
<path d="M534.24 168.104H508.425L509.096 162.697L527.646 144.214C528.317 143.585 528.987 142.83 529.77 142.076C530.44 141.322 531.111 140.441 531.781 139.561C532.34 138.681 532.899 137.801 533.346 136.795C533.793 135.789 534.016 134.909 534.128 133.777C534.24 132.52 534.24 131.388 533.904 130.382C533.569 129.376 533.122 128.496 532.563 127.867C532.005 127.239 531.222 126.61 530.217 126.233C529.323 125.855 528.317 125.73 527.199 125.73C525.076 125.73 523.288 126.358 521.723 127.616C520.159 128.873 518.93 130.634 518.259 132.897L513.901 132.394C514.348 130.759 515.13 129.25 515.912 127.867C516.806 126.484 517.812 125.352 519.041 124.472C520.271 123.466 521.5 122.838 522.953 122.335C524.405 121.832 525.858 121.58 527.423 121.58C529.099 121.58 530.552 121.832 532.005 122.335C533.457 122.838 534.575 123.592 535.581 124.598C536.586 125.604 537.257 126.861 537.816 128.37C538.374 129.879 538.374 131.64 538.151 133.526C537.927 135.286 537.48 136.921 536.81 138.43C536.139 139.938 535.357 141.322 534.463 142.579C533.569 143.836 532.452 145.094 531.334 146.225C530.217 147.357 529.099 148.489 527.87 149.62L513.342 163.955H534.687L534.24 168.104Z" fill="#A95D32"/>
<path d="M397.256 148.121L390.056 148.073L390.207 144.533L397.407 144.582L397.256 148.121ZM383.1 148.078L375.901 148.029L376.052 144.49L383.251 144.539L383.1 148.078ZM368.944 148.034L361.745 147.986L361.896 144.447L369.096 144.495L368.944 148.034ZM354.635 148.085L347.436 148.036L347.587 144.497L354.787 144.546L354.635 148.085ZM340.48 148.041L333.28 147.993L333.431 144.454L340.631 144.502L340.48 148.041ZM326.08 147.945L318.881 147.896L319.032 144.357L326.231 144.406L326.08 147.945ZM311.925 147.901L304.725 147.853L304.876 144.314L312.076 144.362L311.925 147.901ZM297.616 147.952L290.416 147.904L290.567 144.364L297.767 144.413L297.616 147.952ZM283.46 147.909L276.26 147.86L276.411 144.321L283.611 144.37L283.46 147.909ZM269.151 147.959L261.951 147.911L262.102 144.372L269.302 144.42L269.151 147.959ZM254.995 147.916L247.795 147.867L247.947 144.328L255.146 144.377L254.995 147.916ZM240.839 147.872L233.64 147.824L233.791 144.285L240.99 144.333L240.839 147.872ZM226.53 147.923L219.331 147.875L219.482 144.336L226.681 144.384L226.53 147.923ZM212.375 147.88L205.175 147.831L205.326 144.292L212.526 144.341L212.375 147.88ZM198.065 147.93L190.866 147.882L191.017 144.343L198.217 144.391L198.065 147.93Z" fill="black"/>
</g>
<defs>
<clipPath id="clip0_1_52">
<rect width="538" height="189.8" fill="white"/>
</clipPath>
</defs>
</svg>
